<?xml version="1.0" encoding="utf-8"?>
<svg xmlns="http://www.w3.org/2000/svg" viewBox="1240.9793 2708.3799 256 256" width="256px" height="256px"><g transform="matrix(0.5, 0, 0, 0.5, 874.6738411586557, 1428.29994804114)" id="object-1"><rect width="512" height="512" rx="80" fill="#f7df1e" x="732.611" y="2560.16" style="stroke-width: 1; stroke-miterlimit: 5.82;" ry="80"/><path d="M 1056.61 2930.16 C 1066.61 2947.16 1080.61 2959.16 1103.61 2959.16 C 1123.61 2959.16 1136.61 2949.16 1136.61 2935.16 C 1136.61 2919.16 1123.61 2913.16 1101.61 2903.16 L 1089.61 2898.16 C 1054.61 2883.16 1031.61 2865.16 1031.61 2826.16 C 1031.61 2790.16 1058.61 2762.16 1101.61 2762.16 C 1132.61 2762.16 1154.61 2773.16 1169.61 2801.16 L 1132.61 2825.16 C 1124.61 2810.16 1115.61 2804.16 1101.61 2804.16 C 1087.61 2804.16 1078.61 2813.16 1078.61 2825.16 C 1078.61 2839.16 1087.61 2845.16 1108.61 2854.16 L 1120.61 2859.16 C 1161.61 2877.16 1184.61 2894.16 1184.61 2935.16 C 1184.61 2978.16 1150.61 3002.16 1104.61 3002.16 C 1059.61 3002.16 1030.61 2981.16 1016.61 2953.16 L 1056.61 2930.16 Z M 886.611 2934.16 C 894.611 2947.16 900.611 2959.16 917.611 2959.16 C 933.611 2959.16 943.611 2953.16 943.611 2929.16 L 943.611 2763.16 L 991.611 2763.16 L 991.611 2927.16 C 991.611 2977.16 962.611 2999.16 919.611 2999.16 C 880.611 2999.16 858.611 2979.16 847.611 2955.16 L 886.611 2934.16 Z" style="stroke-width: 1;"/></g></svg>