<?xml version="1.0" encoding="utf-8"?>
<svg xmlns="http://www.w3.org/2000/svg" viewBox="923.9458 2381.8318 237.7112 256" width="237.711px" height="256px" preserveAspectRatio="none"><g transform="matrix(9.143016815185547, 0, 0, 9.143016815185547, -7996.08166211965, -23238.36558065363)" id="object-2"><path d="M 989.783 2802.46 C 989.074 2802.06 988.148 2802.06 987.438 2802.46 C 983.88 2804.42 980.322 2806.38 976.763 2808.35 C 976.071 2808.71 975.604 2809.45 975.611 2810.23 L 975.611 2822.09 C 975.606 2822.88 976.097 2823.63 976.807 2823.99 C 977.83 2824.53 978.823 2825.13 979.863 2825.64 C 981.065 2826.23 982.569 2826.36 983.786 2825.74 C 984.774 2825.23 985.213 2824.1 985.211 2823.05 C 985.219 2819.14 985.213 2815.22 985.214 2811.31 C 985.238 2811.13 985.107 2810.95 984.917 2810.95 C 984.463 2810.94 984.007 2810.95 983.553 2810.95 C 983.381 2810.93 983.213 2811.08 983.226 2811.25 C 983.22 2815.14 983.227 2819.03 983.222 2822.92 C 983.232 2823.46 982.869 2823.98 982.35 2824.16 C 981.152 2824.58 977.733 2822.36 977.733 2822.36 C 977.607 2822.3 977.528 2822.16 977.54 2822.03 C 977.54 2818.11 977.541 2814.2 977.54 2810.29 C 977.523 2810.13 977.62 2809.99 977.765 2809.92 C 981.311 2807.97 984.856 2806.01 988.402 2804.06 C 988.525 2803.98 988.697 2803.98 988.82 2804.06 C 992.366 2806.01 995.911 2807.97 999.458 2809.92 C 999.604 2809.99 999.697 2810.13 999.682 2810.29 C 999.681 2814.2 999.683 2818.11 999.681 2822.03 C 999.691 2822.17 999.62 2822.3 999.49 2822.36 C 995.977 2824.3 992.424 2826.18 988.942 2828.18 C 988.791 2828.27 988.618 2828.36 988.448 2828.27 C 987.533 2827.76 986.628 2827.24 985.716 2826.73 C 985.617 2826.66 985.49 2826.64 985.387 2826.71 C 984.978 2826.92 984.593 2827.1 984.123 2827.28 C 983.463 2827.54 983.569 2827.65 984.164 2828 C 985.231 2828.6 986.3 2829.2 987.367 2829.81 C 988.069 2830.25 989.013 2830.28 989.738 2829.87 C 993.297 2827.91 996.855 2825.95 1000.41 2823.99 C 1001.12 2823.63 1001.62 2822.88 1001.61 2822.09 L 1001.61 2810.23 C 1001.62 2809.47 1001.17 2808.74 1000.5 2808.37 C 996.927 2806.4 993.354 2804.43 989.783 2802.46 Z" fill="#8CC84B" style="stroke-width: 1;"/><path d="M 995.153 2811.36 C 993.756 2810.62 992.095 2810.58 990.542 2810.67 C 989.421 2810.78 988.242 2811.09 987.425 2811.9 C 986.587 2812.71 986.405 2814.01 986.803 2815.07 C 987.088 2815.81 987.806 2816.3 988.548 2816.55 C 989.504 2816.89 990.509 2816.99 991.514 2817.1 C 992.43 2817.19 993.347 2817.29 994.227 2817.56 C 994.587 2817.68 995.006 2817.86 995.116 2818.25 C 995.218 2818.72 995.107 2819.26 994.73 2819.58 C 993.535 2820.53 990.209 2820.38 989.028 2819.64 C 988.55 2819.32 988.344 2818.76 988.26 2818.22 C 988.251 2818.05 988.117 2817.9 987.936 2817.91 C 987.482 2817.91 987.029 2817.91 986.575 2817.91 C 986.417 2817.9 986.253 2818.01 986.244 2818.17 C 986.151 2820.63 988.402 2821.69 990.515 2821.93 C 991.722 2822.05 992.955 2822.04 994.144 2821.78 C 995.037 2821.58 995.933 2821.2 996.548 2820.51 C 997.306 2819.68 997.455 2818.43 997.115 2817.39 C 996.855 2816.61 996.112 2816.11 995.353 2815.86 C 994.32 2815.5 993.095 2815.31 992.16 2815.22 C 990.8 2815.09 989.184 2815.15 988.799 2814.25 C 988.645 2813.79 988.776 2813.2 989.206 2812.92 C 990.344 2812.14 992.659 2812.25 993.837 2812.82 C 994.378 2813.09 994.692 2813.65 994.821 2814.21 C 994.845 2814.38 994.956 2814.55 995.147 2814.54 C 995.598 2814.55 996.048 2814.55 996.498 2814.55 C 996.653 2814.56 996.823 2814.47 996.853 2814.31 C 996.834 2813.14 996.234 2811.94 995.153 2811.36 Z" fill="#8CC84B" style="stroke-width: 1;"/></g></svg>