<?xml version="1.0" encoding="utf-8"?>
<svg xmlns="http://www.w3.org/2000/svg" viewBox="518.1482 2595.1639 219.4191 256" width="219.419px" height="256px" preserveAspectRatio="none"><g transform="matrix(9.14285659790039, 0, 0, 9.14285659790039, -8410.866336269173, -23024.58237434301)" id="object-5"><path d="M 978.611 2827.16 L 976.611 2802.16 L 1000.61 2802.16 L 998.611 2827.16 L 988.611 2830.16 L 978.611 2827.16 Z" fill="#1172B8" style="stroke-width: 1;"/><path d="M 998.611 2804.16 L 988.611 2804.16 L 988.611 2828.66 L 996.611 2826.16 L 998.611 2804.16 Z" fill="#33AADD" style="stroke-width: 1;"/><path d="M 992.111 2816.66 L 982.111 2816.66 L 981.611 2813.16 L 989.611 2810.66 L 981.611 2810.66 L 981.111 2807.66 L 996.611 2807.66 L 996.111 2811.16 L 989.611 2813.66 L 995.611 2813.66 L 994.611 2823.16 L 988.611 2825.16 L 982.611 2823.16 L 982.111 2818.16 L 985.111 2818.16 L 985.611 2820.66 L 988.611 2821.66 L 991.611 2820.66 L 992.111 2816.66 Z" fill="white" style="stroke-width: 1;"/></g></svg>