<?xml version="1.0" encoding="utf-8"?>
<svg xmlns="http://www.w3.org/2000/svg" viewBox="1767.3783 2507.9793 240.0105 256.0001" width="240.011px" height="256px" preserveAspectRatio="none"><g id="Layer_1" transform="matrix(0.8787890076637268, 0, 0, 0.8787890076637268, 1018.6016997486604, 161.17325069268418)" style=""><path style="fill: rgb(217, 150, 102); stroke-width: 1;" d="M 852.055 2670.5 L 1125.17 2670.5 L 1097.86 2934.5 L 997.715 2961.81 L 979.508 2961.81 L 879.366 2934.5 L 852.055 2670.5 Z"/><path style="fill: rgb(244, 180, 89); stroke-width: 1;" d="M 988.611 2697.8 L 1088.75 2697.8 L 1070.55 2907.19 L 988.612 2934.5 C 988.611 2934.5 988.611 2697.8 988.611 2697.8 Z"/><polygon style="fill: rgb(255, 255, 255); stroke-width: 1;" points="1061.61 2752.31 1064.47 2725.11 906.386 2725.11 909.572 2752.31 912.486 2788.91 912.449 2788.91 915.208 2816.14 1021.18 2816.14 1017.54 2859.48 988.611 2868.62 988.611 2868.34 950.139 2858.17 947.781 2834.29 915.654 2834.29 919.969 2878.15 919.969 2879.94 988.611 2898.09 1046.17 2879.94 1046.88 2879.94 1046.89 2879.7 1047.02 2879.68 1047.02 2878.24 1052.23 2816.14 1052.35 2816.14 1055.11 2788.91 945.896 2788.91 942.983 2752.31"/><polygon style="fill: rgb(229, 229, 229); stroke-width: 1;" points="988.611 2725.11 906.386 2725.11 909.572 2752.31 912.486 2788.91 912.449 2788.91 915.208 2816.14 988.611 2816.14 988.611 2788.91 945.896 2788.91 942.983 2752.31 988.611 2752.31"/><polygon style="fill: rgb(229, 229, 229); stroke-width: 1;" points="988.611 2868.34 950.139 2858.17 947.781 2834.29 915.654 2834.29 919.969 2878.15 919.969 2879.94 988.611 2898.09 988.611 2868.62"/></g></svg>