<?xml version="1.0" encoding="utf-8"?>
<svg xmlns="http://www.w3.org/2000/svg" viewBox="773.6565 2383.479 115.1239 256" width="115.124px" height="256px" preserveAspectRatio="none"><defs><linearGradient id="a" x1="-645.732" y1="839.188" x2="-654.59" y2="839.25" gradientTransform="matrix(-0.977, -0.323, -0.29, 0.877, 596.666055, 1871.869779)" gradientUnits="userSpaceOnUse"><stop offset="0.231" stop-color="#999875"/><stop offset="0.563" stop-color="#9b9977"/><stop offset="0.683" stop-color="#a09f7e"/><stop offset="0.768" stop-color="#a9a889"/><stop offset="0.837" stop-color="#b7b69a"/><stop offset="0.896" stop-color="#c9c7b0"/><stop offset="0.948" stop-color="#deddcb"/><stop offset="0.994" stop-color="#f8f6eb"/><stop offset="1" stop-color="#fbf9ef"/></linearGradient><linearGradient id="b" x1="-644.287" y1="823.405" x2="-657.028" y2="845.476" gradientTransform="matrix(-0.977, -0.323, -0.29, 0.877, 596.666055, 1871.869779)" gradientUnits="userSpaceOnUse"><stop offset="0" stop-color="#48a547"/><stop offset="1" stop-color="#3f9143"/></linearGradient><linearGradient id="c" x1="-643.386" y1="839.485" x2="-652.418" y2="833.417" gradientTransform="matrix(-0.977, -0.323, -0.29, 0.877, 596.666055, 1871.869779)" gradientUnits="userSpaceOnUse"><stop offset="0" stop-color="#41a247"/><stop offset="0.352" stop-color="#4ba74b"/><stop offset="0.956" stop-color="#67b554"/><stop offset="1" stop-color="#69b655"/></linearGradient></defs><g transform="matrix(9.142857551574707, 0, 0, 9.142857551574707, -8207.511841051455, -23236.269877497398)" id="object-4"><path d="M 989.23 2830.16 L 988.479 2829.91 C 988.479 2829.91 988.579 2826.11 987.204 2825.84 C 986.304 2824.79 987.337 2781.1 990.627 2825.69 C 990.003 2826.01 989.525 2826.55 989.294 2827.22 C 989.17 2828.19 989.149 2829.18 989.23 2830.16 Z" style="fill: url(&quot;#a&quot;); stroke-width: 1;"/><path d="M 989.636 2826.49 C 993.717 2823.41 995.664 2818.26 994.636 2813.26 C 993.166 2806.78 989.685 2804.64 989.31 2803.83 C 988.987 2803.32 988.71 2802.79 988.485 2802.23 L 988.762 2820.3 C 988.762 2820.3 988.188 2825.82 989.636 2826.49 Z" style="fill: url(&quot;#b&quot;); stroke-width: 1;"/><path d="M 988.097 2826.73 C 988.097 2826.73 981.976 2822.56 982.33 2815.18 C 982.397 2810.68 984.41 2806.43 987.849 2803.53 C 988.251 2803.19 988.475 2802.68 988.456 2802.16 C 988.837 2802.98 988.775 2814.4 988.815 2815.74 C 988.97 2820.93 988.526 2825.74 988.097 2826.73 Z" style="fill: url(&quot;#c&quot;); stroke-width: 1;"/></g></svg>