<?xml version="1.0" encoding="utf-8"?>
<svg xmlns="http://www.w3.org/2000/svg" viewBox="585.4577 2905.5085 256 255.9637" width="256px" height="255.964px" preserveAspectRatio="none"><g transform="matrix(9.141562461853027, 0, 0, 9.141562461853027, -8324.009889662411, -22710.56674466381)" id="object-6"><path d="M 975.196 2817.57 C 974.416 2816.79 974.416 2815.52 975.196 2814.74 L 987.198 2802.74 C 987.978 2801.96 989.244 2801.96 990.024 2802.74 L 1002.03 2814.74 C 1002.81 2815.52 1002.81 2816.79 1002.03 2817.57 L 990.024 2829.57 C 989.244 2830.35 987.978 2830.35 987.198 2829.57 L 975.196 2817.57 Z" fill="#EE513B" style="stroke-width: 1;"/><path d="M 984.76 2805.22 L 983.545 2806.43 L 986.683 2809.57 C 986.556 2809.84 986.486 2810.15 986.486 2810.47 C 986.486 2811.38 987.057 2812.16 987.861 2812.46 L 987.861 2820.14 C 987.057 2820.44 986.486 2821.22 986.486 2822.13 C 986.486 2823.3 987.437 2824.25 988.611 2824.25 C 989.784 2824.25 990.736 2823.3 990.736 2822.13 C 990.736 2821.3 990.266 2820.59 989.579 2820.23 L 989.579 2812.47 L 992.58 2815.47 C 992.459 2815.74 992.392 2816.03 992.392 2816.34 C 992.392 2817.52 993.343 2818.47 994.517 2818.47 C 995.69 2818.47 996.642 2817.52 996.642 2816.34 C 996.642 2815.17 995.69 2814.22 994.517 2814.22 C 994.289 2814.22 994.069 2814.26 993.863 2814.32 L 990.641 2811.1 C 990.702 2810.9 990.736 2810.69 990.736 2810.47 C 990.736 2809.3 989.784 2808.34 988.611 2808.34 C 988.391 2808.34 988.18 2808.38 987.981 2808.44 L 984.76 2805.22 Z" fill="white" style="stroke-width: 1;"/></g></svg>